G04 Layer_Physical_Order=1*
G04 Layer_Color=255*
%FSLAX44Y44*%
%MOMM*%
G71*
G01*
G75*
%ADD10R,1.0000X1.6000*%
%ADD11R,1.7500X1.2000*%
%ADD12R,1.7500X1.0000*%
%ADD13R,1.5500X1.0000*%
G04:AMPARAMS|DCode=14|XSize=0.95mm|YSize=0.8mm|CornerRadius=0.2mm|HoleSize=0mm|Usage=FLASHONLY|Rotation=90.000|XOffset=0mm|YOffset=0mm|HoleType=Round|Shape=RoundedRectangle|*
%AMROUNDEDRECTD14*
21,1,0.9500,0.4000,0,0,90.0*
21,1,0.5500,0.8000,0,0,90.0*
1,1,0.4000,0.2000,0.2750*
1,1,0.4000,0.2000,-0.2750*
1,1,0.4000,-0.2000,-0.2750*
1,1,0.4000,-0.2000,0.2750*
%
%ADD14ROUNDEDRECTD14*%
G04:AMPARAMS|DCode=15|XSize=0.95mm|YSize=0.8mm|CornerRadius=0.2mm|HoleSize=0mm|Usage=FLASHONLY|Rotation=0.000|XOffset=0mm|YOffset=0mm|HoleType=Round|Shape=RoundedRectangle|*
%AMROUNDEDRECTD15*
21,1,0.9500,0.4000,0,0,0.0*
21,1,0.5500,0.8000,0,0,0.0*
1,1,0.4000,0.2750,-0.2000*
1,1,0.4000,-0.2750,-0.2000*
1,1,0.4000,-0.2750,0.2000*
1,1,0.4000,0.2750,0.2000*
%
%ADD15ROUNDEDRECTD15*%
%ADD16R,1.6000X1.4000*%
%ADD17R,0.4000X1.4000*%
%ADD18R,1.4500X1.3000*%
%ADD19R,1.9000X1.9000*%
G04:AMPARAMS|DCode=20|XSize=2.3mm|YSize=1.55mm|CornerRadius=0.3875mm|HoleSize=0mm|Usage=FLASHONLY|Rotation=0.000|XOffset=0mm|YOffset=0mm|HoleType=Round|Shape=RoundedRectangle|*
%AMROUNDEDRECTD20*
21,1,2.3000,0.7750,0,0,0.0*
21,1,1.5250,1.5500,0,0,0.0*
1,1,0.7750,0.7625,-0.3875*
1,1,0.7750,-0.7625,-0.3875*
1,1,0.7750,-0.7625,0.3875*
1,1,0.7750,0.7625,0.3875*
%
%ADD20ROUNDEDRECTD20*%
%ADD21C,0.2500*%
%ADD22C,0.4000*%
%ADD23C,0.5000*%
%ADD24C,0.3000*%
%ADD25C,0.1800*%
%ADD26O,1.5000X2.6000*%
%ADD27R,1.5240X1.5240*%
%ADD28C,1.5240*%
%ADD29C,1.2000*%
%ADD30C,0.9000*%
%ADD31C,1.6000*%
%ADD32C,0.7000*%
G36*
X10000Y385043D02*
X293499D01*
X293500Y385043D01*
Y385043D01*
X294725Y384934D01*
X296438Y384593D01*
X298929Y382929D01*
X300593Y380438D01*
X300934Y378725D01*
X301043Y377500D01*
X301043D01*
X301043Y377500D01*
Y65575D01*
X299773Y65190D01*
X299248Y65975D01*
X292137Y58864D01*
X291500Y59500D01*
X290864Y58864D01*
X283752Y65976D01*
X282043Y63418D01*
X281264Y59500D01*
Y48500D01*
X282043Y44583D01*
X283752Y42025D01*
X290864Y49137D01*
X291500Y48500D01*
X292137Y49137D01*
X299248Y42025D01*
X299773Y42810D01*
X301043Y42425D01*
Y10000D01*
X301043Y10000D01*
X301043D01*
X300934Y8775D01*
X300593Y7062D01*
X298929Y4571D01*
X296438Y2907D01*
X293720Y2366D01*
X293500Y2457D01*
X10000D01*
X9780Y2366D01*
X7062Y2907D01*
X4571Y4571D01*
X2907Y7062D01*
X2366Y9780D01*
X2457Y10000D01*
Y42425D01*
X3727Y42810D01*
X4252Y42025D01*
X11364Y49137D01*
X12000Y48500D01*
X12636Y49137D01*
X19748Y42025D01*
X21458Y44583D01*
X22237Y48500D01*
Y59500D01*
X21458Y63418D01*
X19748Y65975D01*
X12636Y58864D01*
X12000Y59500D01*
X11364Y58864D01*
X4252Y65976D01*
X3727Y65190D01*
X2457Y65575D01*
Y73815D01*
X3460Y74460D01*
X3727Y74460D01*
X22767D01*
X15864Y81364D01*
X17136Y82636D01*
X24040Y75733D01*
Y89000D01*
X24500D01*
Y92564D01*
X96000D01*
X97722Y93278D01*
X180046Y175602D01*
X181000Y175412D01*
X182756Y175761D01*
X184244Y176756D01*
X185239Y178244D01*
X185295Y178524D01*
X186565Y178399D01*
Y167785D01*
X185756Y167244D01*
X184761Y165756D01*
X184412Y164000D01*
X184761Y162244D01*
X185756Y160756D01*
X187244Y159761D01*
X189000Y159412D01*
X190756Y159761D01*
X192244Y160756D01*
X193239Y162244D01*
X193588Y164000D01*
X193239Y165756D01*
X192244Y167244D01*
X191435Y167785D01*
Y211991D01*
X257046Y277602D01*
X258000Y277412D01*
X259756Y277761D01*
X261244Y278756D01*
X262239Y280244D01*
X262588Y282000D01*
X262239Y283756D01*
X261244Y285244D01*
X259756Y286239D01*
X258000Y286588D01*
X257225Y286434D01*
X256868Y286727D01*
X256298Y287544D01*
X256588Y288999D01*
X256398Y289954D01*
X262529Y296085D01*
X263250Y295941D01*
X268750D01*
X269921Y296174D01*
X270913Y296837D01*
X271576Y297830D01*
X271722Y298565D01*
X276278D01*
X276424Y297829D01*
X277087Y296837D01*
X278079Y296174D01*
X279250Y295941D01*
X284750D01*
X285921Y296174D01*
X286913Y296837D01*
X287576Y297829D01*
X287809Y299000D01*
Y303000D01*
X287576Y304170D01*
X286913Y305163D01*
X285921Y305826D01*
X284750Y306059D01*
X279250D01*
X278079Y305826D01*
X277087Y305163D01*
X276424Y304170D01*
X276278Y303435D01*
X271722D01*
X271576Y304171D01*
X270913Y305163D01*
X269921Y305826D01*
X268750Y306059D01*
X263250D01*
X262080Y305826D01*
X261087Y305163D01*
X260424Y304171D01*
X260191Y303000D01*
Y300635D01*
X252954Y293398D01*
X251999Y293588D01*
X250244Y293238D01*
X248755Y292244D01*
X247761Y290755D01*
X247411Y288999D01*
X247761Y287244D01*
X248755Y285755D01*
X250244Y284760D01*
X251999Y284411D01*
X252775Y284565D01*
X253131Y284273D01*
X253701Y283455D01*
X253412Y282000D01*
X253602Y281046D01*
X187278Y214722D01*
X186565Y213000D01*
Y181601D01*
X185295Y181476D01*
X185239Y181756D01*
X184244Y183244D01*
X182756Y184239D01*
X181000Y184588D01*
X179244Y184239D01*
X177756Y183244D01*
X176761Y181756D01*
X176412Y180000D01*
X176602Y179046D01*
X94991Y97435D01*
X24500D01*
Y101000D01*
X23438D01*
X22840Y102120D01*
X23189Y102643D01*
X23658Y105000D01*
X23189Y107357D01*
X22364Y108592D01*
X18136Y104364D01*
X17500Y105000D01*
X16864Y104364D01*
X12636Y108592D01*
X11810Y107357D01*
X11342Y105000D01*
X11810Y102643D01*
X12160Y102120D01*
X11561Y101000D01*
X5000D01*
Y89540D01*
X3727D01*
X3460Y89540D01*
X2457Y90185D01*
Y377500D01*
X2366Y377720D01*
X2907Y380438D01*
X4571Y382929D01*
X7062Y384593D01*
X9781Y385134D01*
X10000Y385043D01*
D02*
G37*
%LPC*%
G36*
X283500Y382059D02*
X283500Y382059D01*
X94000D01*
X94000Y382059D01*
X92830Y381826D01*
X91837Y381163D01*
X91837Y381163D01*
X79337Y368663D01*
X78674Y367671D01*
X78441Y366500D01*
X78441Y366500D01*
Y333846D01*
X73875D01*
X71973Y333467D01*
X70360Y332390D01*
X69283Y330777D01*
X68904Y328875D01*
Y321125D01*
X69283Y319223D01*
X70360Y317610D01*
X71973Y316533D01*
X73875Y316155D01*
X89125D01*
X91027Y316533D01*
X92640Y317610D01*
X93717Y319223D01*
X94095Y321125D01*
Y328875D01*
X93717Y330777D01*
X92640Y332390D01*
X91027Y333467D01*
X89125Y333846D01*
X84559D01*
Y365233D01*
X95267Y375941D01*
X218960D01*
Y374136D01*
X218540Y373040D01*
X217690Y373040D01*
X200233D01*
X208636Y364636D01*
X208000Y364000D01*
X208636Y363363D01*
X200233Y354960D01*
X217690D01*
X218540Y354960D01*
X218960Y353864D01*
Y353233D01*
X230364Y364636D01*
X231636Y363363D01*
X220233Y351960D01*
X265767D01*
X254364Y363363D01*
X255637Y364636D01*
X267040Y353233D01*
Y353864D01*
X267460Y354960D01*
X285767D01*
X277363Y363363D01*
X278636Y364636D01*
X287040Y356233D01*
Y369475D01*
X288213Y369961D01*
X289441Y368733D01*
Y336267D01*
X286963Y333789D01*
X285790Y334275D01*
Y347767D01*
X276886Y338864D01*
X275613Y340136D01*
X284517Y349040D01*
X265982D01*
X274886Y340136D01*
X274250Y339500D01*
X274886Y338864D01*
X265982Y329960D01*
X272838D01*
X273364Y328690D01*
X266733Y322059D01*
X265267D01*
X259309Y328017D01*
Y337500D01*
X259250Y337795D01*
Y345500D01*
X254020D01*
X253250Y345500D01*
X251980Y345500D01*
X247270D01*
X246000Y345500D01*
X245480Y345500D01*
X240520D01*
X239250Y345500D01*
X238730Y345500D01*
X234290D01*
Y347040D01*
X226483D01*
X230386Y343136D01*
X229113Y341864D01*
X225210Y345767D01*
Y329233D01*
X229113Y333136D01*
X230386Y331864D01*
X226483Y327960D01*
X234290D01*
Y329500D01*
X239667Y329500D01*
X240565Y328602D01*
Y327009D01*
X238991Y325435D01*
X195272D01*
X195076Y326421D01*
X194413Y327413D01*
X193420Y328076D01*
X192250Y328309D01*
X186750D01*
X185579Y328076D01*
X184587Y327413D01*
X184440Y327193D01*
X183294Y326965D01*
X182574Y327430D01*
X182756Y328760D01*
X184244Y329755D01*
X185238Y331244D01*
X185588Y332999D01*
X185544Y333218D01*
X186556Y334230D01*
X186750Y334191D01*
X192250D01*
X193420Y334424D01*
X194413Y335087D01*
X195076Y336080D01*
X195309Y337250D01*
Y341250D01*
X195076Y342421D01*
X194413Y343413D01*
X193420Y344076D01*
X192250Y344309D01*
X186750D01*
X185579Y344076D01*
X184587Y343413D01*
X183924Y342421D01*
X183691Y341250D01*
Y338961D01*
X182099Y337369D01*
X181000Y337588D01*
X179244Y337238D01*
X177755Y336244D01*
X176761Y334755D01*
X176411Y332999D01*
X176630Y331900D01*
X169539Y324809D01*
X166000D01*
X164829Y324576D01*
X163837Y323913D01*
X163174Y322920D01*
X162941Y321750D01*
Y318385D01*
X146923Y302367D01*
X145750Y302853D01*
Y305000D01*
X135797D01*
X129023Y311773D01*
X128616Y312046D01*
X128604Y313337D01*
X129333Y313858D01*
X130601Y313460D01*
X130761Y312656D01*
X131756Y311168D01*
X133244Y310173D01*
X135000Y309824D01*
X136756Y310173D01*
X138244Y311168D01*
X139239Y312656D01*
X139588Y314412D01*
X139239Y316168D01*
X138244Y317656D01*
X137435Y318197D01*
Y323667D01*
X138705Y324052D01*
X139136Y323408D01*
X142727Y327000D01*
X139136Y330592D01*
X138705Y329948D01*
X137435Y330333D01*
Y338175D01*
X136722Y339897D01*
X130897Y345722D01*
X129174Y346436D01*
X117009D01*
X107868Y355576D01*
X108478Y356488D01*
X109177Y360000D01*
X108478Y363512D01*
X106489Y366489D01*
X103512Y368478D01*
X100000Y369176D01*
X96489Y368478D01*
X93511Y366489D01*
X91522Y363512D01*
X90824Y360000D01*
X91522Y356488D01*
X93511Y353511D01*
X96489Y351522D01*
X100000Y350824D01*
X103512Y351522D01*
X104424Y352132D01*
X114278Y342278D01*
X116000Y341565D01*
X119745D01*
X120424Y340295D01*
X120174Y339921D01*
X119941Y338750D01*
Y333250D01*
X120174Y332080D01*
X120837Y331087D01*
X121829Y330424D01*
X122564Y330278D01*
Y324722D01*
X121830Y324576D01*
X120837Y323913D01*
X120174Y322921D01*
X119941Y321750D01*
Y316250D01*
X120174Y315079D01*
X120837Y314087D01*
X120450Y312819D01*
X118259D01*
X117256Y313489D01*
X115500Y313838D01*
X114546Y313648D01*
X113541Y314653D01*
X113826Y315079D01*
X114059Y316250D01*
Y321750D01*
X113826Y322921D01*
X113163Y323913D01*
X112171Y324576D01*
X111000Y324809D01*
X107000D01*
X105830Y324576D01*
X105456Y324326D01*
X104185Y325005D01*
Y326742D01*
X107635Y330191D01*
X111000D01*
X112170Y330424D01*
X113163Y331087D01*
X113826Y332080D01*
X114059Y333250D01*
Y338750D01*
X113826Y339921D01*
X113163Y340913D01*
X112170Y341576D01*
X111000Y341809D01*
X107000D01*
X105829Y341576D01*
X104837Y340913D01*
X104174Y339921D01*
X103941Y338750D01*
Y333386D01*
X100028Y329473D01*
X99315Y327751D01*
Y283618D01*
X98756Y283244D01*
X97761Y281756D01*
X97412Y280000D01*
X97761Y278244D01*
X98756Y276756D01*
X100244Y275761D01*
X102000Y275412D01*
X103756Y275761D01*
X105244Y276756D01*
X106239Y278244D01*
X106588Y280000D01*
X106239Y281756D01*
X105244Y283244D01*
X104185Y283952D01*
Y312995D01*
X105456Y313674D01*
X105830Y313424D01*
X107000Y313191D01*
X108115D01*
X111102Y310204D01*
X110912Y309250D01*
X111261Y307494D01*
X112079Y306270D01*
X111762Y305334D01*
X111516Y305000D01*
X108750D01*
Y287000D01*
X112315D01*
Y286250D01*
X113028Y284528D01*
X128279Y269277D01*
X130001Y268564D01*
X130002Y268565D01*
X142317D01*
X142736Y267415D01*
X142019Y266435D01*
X96553D01*
X96168Y267705D01*
X96244Y267756D01*
X97239Y269244D01*
X97588Y271000D01*
X97239Y272756D01*
X96244Y274244D01*
X94756Y275239D01*
X93000Y275588D01*
X91244Y275239D01*
X89756Y274244D01*
X89215Y273435D01*
X87759D01*
X76871Y284323D01*
Y304565D01*
X76157Y306287D01*
X62435Y320009D01*
Y337991D01*
X64046Y339602D01*
X65000Y339412D01*
X66756Y339761D01*
X68244Y340756D01*
X69239Y342244D01*
X69588Y344000D01*
X69239Y345756D01*
X68244Y347244D01*
X66756Y348239D01*
X65000Y348588D01*
X63244Y348239D01*
X61756Y347244D01*
X60761Y345756D01*
X60412Y344000D01*
X60602Y343046D01*
X58278Y340722D01*
X57565Y339000D01*
Y319000D01*
X58278Y317278D01*
X69383Y306173D01*
X68896Y305000D01*
X58750D01*
Y287000D01*
X62314D01*
Y283250D01*
X63028Y281528D01*
X82278Y262277D01*
X84001Y261564D01*
X142215D01*
X142755Y260755D01*
X143578Y260205D01*
X143193Y258935D01*
X79509D01*
X52617Y285827D01*
X53103Y287000D01*
X54250D01*
Y305000D01*
X42250D01*
Y287000D01*
X45815D01*
Y286750D01*
X46528Y285028D01*
X76778Y254778D01*
X78500Y254065D01*
X131461D01*
X131947Y252891D01*
X84491Y205435D01*
X78785D01*
X78244Y206244D01*
X76756Y207239D01*
X75000Y207588D01*
X73244Y207239D01*
X71756Y206244D01*
X70761Y204756D01*
X70412Y203000D01*
X70761Y201244D01*
X71756Y199756D01*
X73244Y198761D01*
X75000Y198412D01*
X76756Y198761D01*
X78244Y199756D01*
X78785Y200565D01*
X85500D01*
X87222Y201278D01*
X140009Y254065D01*
X150215D01*
X150756Y253256D01*
X152244Y252261D01*
X153764Y251959D01*
X154143Y251260D01*
X154273Y250671D01*
X75576Y171974D01*
X75000Y172088D01*
X73244Y171739D01*
X71756Y170744D01*
X70761Y169256D01*
X70412Y167500D01*
X70761Y165744D01*
X71756Y164256D01*
X73244Y163261D01*
X75000Y162912D01*
X76756Y163261D01*
X78244Y164256D01*
X79239Y165744D01*
X79588Y167500D01*
X79323Y168833D01*
X165722Y255232D01*
X166435Y256954D01*
Y267215D01*
X167244Y267756D01*
X168239Y269244D01*
X168588Y271000D01*
X168239Y272756D01*
X167244Y274244D01*
X165756Y275239D01*
X164000Y275588D01*
X162244Y275239D01*
X160756Y274244D01*
X160215Y273435D01*
X131009D01*
X118617Y285827D01*
X119103Y287000D01*
X120750D01*
Y305000D01*
X121738Y305681D01*
X125022D01*
X133750Y296953D01*
Y287000D01*
X145750D01*
Y294306D01*
X156037Y304593D01*
X157210Y304107D01*
Y288438D01*
X156189Y288235D01*
X154954Y287410D01*
X159182Y283182D01*
X163410Y278954D01*
X164235Y280189D01*
X164704Y282546D01*
X164377Y284190D01*
X165247Y285422D01*
X165320Y285460D01*
X167821D01*
X168649Y284190D01*
X168412Y283000D01*
X168761Y281244D01*
X169756Y279756D01*
X170565Y279215D01*
Y277000D01*
X171278Y275278D01*
X181278Y265278D01*
X183000Y264565D01*
X184461D01*
X184947Y263391D01*
X171279Y249723D01*
X171278Y249722D01*
X75954Y154398D01*
X75000Y154588D01*
X73244Y154239D01*
X71755Y153244D01*
X70761Y151756D01*
X70412Y150000D01*
X70761Y148244D01*
X71755Y146756D01*
X73244Y145761D01*
X75000Y145412D01*
X76756Y145761D01*
X78244Y146756D01*
X79239Y148244D01*
X79588Y150000D01*
X79398Y150955D01*
X174722Y246278D01*
X174722Y246278D01*
X193722Y265278D01*
X215444Y287000D01*
X219260D01*
X219786Y285730D01*
X200778Y266722D01*
X200065Y265000D01*
Y243509D01*
X75954Y119398D01*
X75000Y119588D01*
X73244Y119239D01*
X71755Y118244D01*
X70761Y116756D01*
X70412Y115000D01*
X70761Y113244D01*
X71755Y111756D01*
X73244Y110761D01*
X75000Y110412D01*
X76756Y110761D01*
X78244Y111756D01*
X79239Y113244D01*
X79588Y115000D01*
X79398Y115954D01*
X105297Y141853D01*
X106311Y141084D01*
X105842Y138727D01*
X106311Y136370D01*
X107136Y135136D01*
X111364Y139364D01*
X115592Y143592D01*
X114357Y144417D01*
X112000Y144886D01*
X109643Y144417D01*
X108875Y145431D01*
X204222Y240778D01*
X204935Y242500D01*
Y263991D01*
X232577Y291633D01*
X233750Y291147D01*
Y287000D01*
X245750D01*
Y305000D01*
X236104D01*
X236020Y305136D01*
X235714Y306270D01*
X251472Y322028D01*
X252185Y323750D01*
Y325288D01*
X253360Y325553D01*
X253455Y325533D01*
X254087Y324587D01*
X260191Y318483D01*
Y315000D01*
X260424Y313830D01*
X261087Y312837D01*
X262080Y312174D01*
X263250Y311941D01*
X268750D01*
X269921Y312174D01*
X270913Y312837D01*
X271576Y313830D01*
X271809Y315000D01*
Y318483D01*
X273575Y320249D01*
X274745Y319623D01*
X274621Y319000D01*
Y315000D01*
X274973Y313228D01*
X275467Y312490D01*
X280613Y317636D01*
X281886Y316364D01*
X276740Y311217D01*
X277479Y310723D01*
X279250Y310371D01*
X284750D01*
X286521Y310723D01*
X287260Y311217D01*
X282113Y316364D01*
X282750Y317000D01*
X282113Y317636D01*
X287260Y322783D01*
X286521Y323276D01*
X286088Y323363D01*
Y324658D01*
X286171Y324674D01*
X287163Y325337D01*
X294663Y332837D01*
X294663Y332837D01*
X295326Y333829D01*
X295559Y335000D01*
Y370000D01*
X295559Y370000D01*
X295326Y371171D01*
X294663Y372163D01*
X294663Y372163D01*
X285663Y381163D01*
X284671Y381826D01*
X283500Y382059D01*
D02*
G37*
G36*
X176200Y370631D02*
X173449Y370269D01*
X170885Y369207D01*
X169403Y368070D01*
X176200Y361273D01*
X182997Y368070D01*
X181516Y369207D01*
X178952Y370269D01*
X176200Y370631D01*
D02*
G37*
G36*
X198960Y371767D02*
Y356233D01*
X206727Y364000D01*
X198960Y371767D01*
D02*
G37*
G36*
X184270Y366797D02*
X177473Y360000D01*
X184270Y353203D01*
X185407Y354685D01*
X186469Y357249D01*
X186831Y360000D01*
X186469Y362752D01*
X185407Y365316D01*
X184270Y366797D01*
D02*
G37*
G36*
X168130D02*
X166994Y365316D01*
X165931Y362752D01*
X165569Y360000D01*
X165931Y357249D01*
X166994Y354685D01*
X168130Y353203D01*
X174927Y360000D01*
X168130Y366797D01*
D02*
G37*
G36*
X71320Y368620D02*
X54080D01*
Y351380D01*
X71320D01*
Y368620D01*
D02*
G37*
G36*
X37300Y368789D02*
X33937Y368120D01*
X31086Y366215D01*
X29180Y363363D01*
X28511Y360000D01*
X29180Y356637D01*
X31086Y353785D01*
X33937Y351880D01*
X37300Y351211D01*
X40663Y351880D01*
X43515Y353785D01*
X45420Y356637D01*
X46089Y360000D01*
X45420Y363363D01*
X43515Y366215D01*
X40663Y368120D01*
X37300Y368789D01*
D02*
G37*
G36*
X150800Y369176D02*
X147289Y368478D01*
X144312Y366489D01*
X142322Y363512D01*
X141624Y360000D01*
X142322Y356488D01*
X144312Y353511D01*
X147289Y351522D01*
X150800Y350824D01*
X154312Y351522D01*
X157289Y353511D01*
X159278Y356488D01*
X159977Y360000D01*
X159278Y363512D01*
X157289Y366489D01*
X154312Y368478D01*
X150800Y369176D01*
D02*
G37*
G36*
X125400D02*
X121889Y368478D01*
X118912Y366489D01*
X116922Y363512D01*
X116224Y360000D01*
X116922Y356488D01*
X118912Y353511D01*
X121889Y351522D01*
X125400Y350824D01*
X128912Y351522D01*
X131889Y353511D01*
X133878Y356488D01*
X134577Y360000D01*
X133878Y363512D01*
X131889Y366489D01*
X128912Y368478D01*
X125400Y369176D01*
D02*
G37*
G36*
X176200Y358727D02*
X169403Y351930D01*
X170885Y350793D01*
X173449Y349731D01*
X176200Y349369D01*
X178952Y349731D01*
X181516Y350793D01*
X182997Y351930D01*
X176200Y358727D01*
D02*
G37*
G36*
X264710Y347767D02*
Y331233D01*
X272977Y339500D01*
X264710Y347767D01*
D02*
G37*
G36*
X200210Y347767D02*
Y331233D01*
X208477Y339500D01*
X200210Y347767D01*
D02*
G37*
G36*
X221290Y347767D02*
X213023Y339500D01*
X221290Y331233D01*
Y347767D01*
D02*
G37*
G36*
X220017Y349040D02*
X201483D01*
X210387Y340136D01*
X209750Y339500D01*
X210387Y338864D01*
X201483Y329960D01*
X220017D01*
X211114Y338864D01*
X211750Y339500D01*
X211114Y340136D01*
X220017Y349040D01*
D02*
G37*
G36*
X170000Y341809D02*
X166000D01*
X164829Y341576D01*
X163837Y340913D01*
X163174Y339921D01*
X162941Y338750D01*
Y333250D01*
X163113Y332383D01*
X155252Y324521D01*
X155170Y324576D01*
X154000Y324809D01*
X151017D01*
X149973Y326068D01*
X150158Y327000D01*
X149770Y328950D01*
X149795Y329080D01*
X150383Y329953D01*
X150659Y330191D01*
X154000D01*
X155170Y330424D01*
X156163Y331087D01*
X156826Y332080D01*
X157059Y333250D01*
Y338750D01*
X156826Y339921D01*
X156163Y340913D01*
X155170Y341576D01*
X154000Y341809D01*
X150000D01*
X148829Y341576D01*
X147837Y340913D01*
X147512Y340426D01*
X146122Y339971D01*
X145891Y339981D01*
X145506Y340239D01*
X143750Y340588D01*
X141994Y340239D01*
X140506Y339244D01*
X139511Y337756D01*
X139162Y336000D01*
X139511Y334244D01*
X140182Y333240D01*
X140106Y332167D01*
X144636Y327636D01*
X144000Y327000D01*
X144636Y326364D01*
X140408Y322136D01*
X141643Y321311D01*
X144000Y320842D01*
X145671Y321174D01*
X146941Y320290D01*
Y316250D01*
X147174Y315079D01*
X147837Y314087D01*
X148829Y313424D01*
X150000Y313191D01*
X154000D01*
X155170Y313424D01*
X156163Y314087D01*
X156826Y315079D01*
X157059Y316250D01*
Y319440D01*
X167810Y330191D01*
X170000D01*
X171170Y330424D01*
X172163Y331087D01*
X172826Y332080D01*
X173059Y333250D01*
Y334091D01*
X173435Y335000D01*
X173059Y335909D01*
Y338750D01*
X172826Y339921D01*
X172163Y340913D01*
X171170Y341576D01*
X170000Y341809D01*
D02*
G37*
G36*
X17500Y339588D02*
X15744Y339239D01*
X14256Y338244D01*
X13261Y336756D01*
X12912Y335000D01*
X13261Y333244D01*
X14256Y331756D01*
X15744Y330761D01*
X16928Y330526D01*
X24977Y322477D01*
X25905Y321856D01*
Y321125D01*
X26283Y319223D01*
X27361Y317610D01*
X28973Y316533D01*
X30875Y316155D01*
X46125D01*
X48027Y316533D01*
X49640Y317610D01*
X50717Y319223D01*
X51096Y321125D01*
Y328875D01*
X50717Y330777D01*
X49640Y332390D01*
X48027Y333467D01*
X46125Y333846D01*
X30875D01*
X28973Y333467D01*
X27361Y332390D01*
X27034Y331901D01*
X25770Y331777D01*
X21974Y335572D01*
X21739Y336756D01*
X20744Y338244D01*
X19256Y339239D01*
X17500Y339588D01*
D02*
G37*
G36*
X288533Y321510D02*
X284023Y317000D01*
X288533Y312490D01*
X289027Y313228D01*
X289379Y315000D01*
Y319000D01*
X289027Y320771D01*
X288533Y321510D01*
D02*
G37*
G36*
X96017Y306540D02*
X83483D01*
X89750Y300273D01*
X96017Y306540D01*
D02*
G37*
G36*
X82210Y305267D02*
Y286733D01*
X89114Y293636D01*
X89750Y293000D01*
X90386Y293636D01*
X97290Y286733D01*
Y305267D01*
X90386Y298364D01*
X89750Y299000D01*
X89114Y298364D01*
X82210Y305267D01*
D02*
G37*
G36*
X89750Y291727D02*
X83483Y285460D01*
X96017D01*
X89750Y291727D01*
D02*
G37*
G36*
X17500Y288158D02*
X15143Y287689D01*
X13908Y286864D01*
X17500Y283273D01*
X21092Y286864D01*
X19857Y287689D01*
X17500Y288158D01*
D02*
G37*
G36*
X153681Y286137D02*
X152856Y284902D01*
X152387Y282546D01*
X152856Y280189D01*
X153681Y278954D01*
X157273Y282546D01*
X153681Y286137D01*
D02*
G37*
G36*
X22364Y285592D02*
X18773Y282000D01*
X22364Y278408D01*
X23189Y279643D01*
X23658Y282000D01*
X23189Y284357D01*
X22364Y285592D01*
D02*
G37*
G36*
X12636Y285592D02*
X11810Y284357D01*
X11342Y282000D01*
X11810Y279643D01*
X12636Y278408D01*
X16227Y282000D01*
X12636Y285592D01*
D02*
G37*
G36*
X158546Y281273D02*
X154954Y277681D01*
X156189Y276856D01*
X158546Y276387D01*
X160902Y276856D01*
X162137Y277681D01*
X158546Y281273D01*
D02*
G37*
G36*
X17500Y280727D02*
X13908Y277136D01*
X15143Y276310D01*
X17500Y275842D01*
X19857Y276310D01*
X21092Y277136D01*
X17500Y280727D01*
D02*
G37*
G36*
X260000Y271158D02*
X257643Y270690D01*
X256408Y269864D01*
X260000Y266273D01*
X263592Y269864D01*
X262357Y270690D01*
X260000Y271158D01*
D02*
G37*
G36*
X215000Y268158D02*
X212643Y267690D01*
X211408Y266864D01*
X215000Y263273D01*
X218592Y266864D01*
X217357Y267690D01*
X215000Y268158D01*
D02*
G37*
G36*
X264864Y268592D02*
X261273Y265000D01*
X264864Y261408D01*
X265690Y262643D01*
X266158Y265000D01*
X265690Y267357D01*
X264864Y268592D01*
D02*
G37*
G36*
X255136Y268592D02*
X254310Y267357D01*
X253842Y265000D01*
X254310Y262643D01*
X255136Y261408D01*
X258727Y265000D01*
X255136Y268592D01*
D02*
G37*
G36*
X260000Y263727D02*
X256408Y260136D01*
X257643Y259310D01*
X260000Y258842D01*
X262357Y259310D01*
X263592Y260136D01*
X260000Y263727D01*
D02*
G37*
G36*
X219864Y265592D02*
X216273Y262000D01*
X219864Y258408D01*
X220690Y259643D01*
X221158Y262000D01*
X220690Y264357D01*
X219864Y265592D01*
D02*
G37*
G36*
X210136Y265592D02*
X209310Y264357D01*
X208842Y262000D01*
X209310Y259643D01*
X210136Y258408D01*
X213727Y262000D01*
X210136Y265592D01*
D02*
G37*
G36*
X215000Y260727D02*
X211408Y257136D01*
X212643Y256311D01*
X215000Y255842D01*
X217357Y256311D01*
X218592Y257136D01*
X215000Y260727D01*
D02*
G37*
G36*
X254000Y257599D02*
X252244Y257250D01*
X250756Y256255D01*
X249761Y254767D01*
X249412Y253011D01*
X249575Y252191D01*
X203198Y205813D01*
X202645Y204986D01*
X202451Y204011D01*
Y128709D01*
X201756Y128244D01*
X200761Y126756D01*
X200412Y125000D01*
X200761Y123244D01*
X201756Y121756D01*
X203244Y120761D01*
X205000Y120412D01*
X206756Y120761D01*
X208244Y121756D01*
X209239Y123244D01*
X209588Y125000D01*
X209239Y126756D01*
X208244Y128244D01*
X207549Y128709D01*
Y202955D01*
X253180Y248586D01*
X254000Y248423D01*
X255756Y248772D01*
X257244Y249767D01*
X258239Y251255D01*
X258588Y253011D01*
X258239Y254767D01*
X257244Y256255D01*
X255756Y257250D01*
X254000Y257599D01*
D02*
G37*
G36*
X143000Y252588D02*
X141244Y252239D01*
X139756Y251244D01*
X138761Y249756D01*
X138412Y248000D01*
X138602Y247046D01*
X79783Y188227D01*
X78244Y188244D01*
X76756Y189239D01*
X75000Y189588D01*
X73244Y189239D01*
X71755Y188244D01*
X70761Y186756D01*
X70412Y185000D01*
X70761Y183244D01*
X71755Y181756D01*
X73244Y180761D01*
X75000Y180412D01*
X76756Y180761D01*
X78244Y181756D01*
X78785Y182565D01*
X80000D01*
X81722Y183278D01*
X142046Y243602D01*
X143000Y243412D01*
X144756Y243761D01*
X146244Y244756D01*
X147239Y246244D01*
X147588Y248000D01*
X147239Y249756D01*
X146244Y251244D01*
X144756Y252239D01*
X143000Y252588D01*
D02*
G37*
G36*
X190000Y252588D02*
X188244Y252239D01*
X186756Y251244D01*
X185761Y249756D01*
X185412Y248000D01*
X185602Y247046D01*
X75954Y137398D01*
X75000Y137588D01*
X73244Y137239D01*
X71756Y136244D01*
X70761Y134756D01*
X70412Y133000D01*
X70761Y131244D01*
X71756Y129756D01*
X73244Y128761D01*
X75000Y128412D01*
X76756Y128761D01*
X78244Y129756D01*
X79239Y131244D01*
X79588Y133000D01*
X79398Y133954D01*
X189046Y243602D01*
X190000Y243412D01*
X191756Y243761D01*
X193244Y244756D01*
X194239Y246244D01*
X194588Y248000D01*
X194239Y249756D01*
X193244Y251244D01*
X191756Y252239D01*
X190000Y252588D01*
D02*
G37*
G36*
X87000Y227158D02*
X84643Y226689D01*
X83408Y225864D01*
X87000Y222273D01*
X90592Y225864D01*
X89357Y226689D01*
X87000Y227158D01*
D02*
G37*
G36*
X91864Y224592D02*
X88273Y221000D01*
X91864Y217408D01*
X92690Y218643D01*
X93158Y221000D01*
X92690Y223357D01*
X91864Y224592D01*
D02*
G37*
G36*
X82136Y224592D02*
X81311Y223357D01*
X80842Y221000D01*
X81311Y218643D01*
X82136Y217408D01*
X85727Y221000D01*
X82136Y224592D01*
D02*
G37*
G36*
X87000Y219727D02*
X83408Y216136D01*
X84643Y215310D01*
X87000Y214842D01*
X89357Y215310D01*
X90592Y216136D01*
X87000Y219727D01*
D02*
G37*
G36*
X284000Y212158D02*
X281643Y211689D01*
X280408Y210864D01*
X284000Y207273D01*
X287592Y210864D01*
X286357Y211689D01*
X284000Y212158D01*
D02*
G37*
G36*
X176273Y208158D02*
X173916Y207690D01*
X172681Y206864D01*
X176273Y203273D01*
X179864Y206864D01*
X178629Y207690D01*
X176273Y208158D01*
D02*
G37*
G36*
X288864Y209592D02*
X285273Y206000D01*
X288864Y202408D01*
X289690Y203643D01*
X290158Y206000D01*
X289690Y208357D01*
X288864Y209592D01*
D02*
G37*
G36*
X279136Y209592D02*
X278310Y208357D01*
X277842Y206000D01*
X278310Y203643D01*
X279136Y202408D01*
X282727Y206000D01*
X279136Y209592D01*
D02*
G37*
G36*
X17500Y206158D02*
X15143Y205690D01*
X13908Y204864D01*
X17500Y201273D01*
X21092Y204864D01*
X19857Y205690D01*
X17500Y206158D01*
D02*
G37*
G36*
X284000Y204727D02*
X280408Y201136D01*
X281643Y200310D01*
X284000Y199842D01*
X286357Y200310D01*
X287592Y201136D01*
X284000Y204727D01*
D02*
G37*
G36*
X181137Y205592D02*
X177546Y202000D01*
X181137Y198408D01*
X181962Y199643D01*
X182431Y202000D01*
X181962Y204357D01*
X181137Y205592D01*
D02*
G37*
G36*
X171408Y205592D02*
X170583Y204357D01*
X170114Y202000D01*
X170583Y199643D01*
X171408Y198408D01*
X175000Y202000D01*
X171408Y205592D01*
D02*
G37*
G36*
X22364Y203592D02*
X18773Y200000D01*
X22364Y196408D01*
X23189Y197643D01*
X23658Y200000D01*
X23189Y202357D01*
X22364Y203592D01*
D02*
G37*
G36*
X12636Y203592D02*
X11810Y202357D01*
X11342Y200000D01*
X11810Y197643D01*
X12636Y196408D01*
X16227Y200000D01*
X12636Y203592D01*
D02*
G37*
G36*
X176273Y200727D02*
X172681Y197136D01*
X173916Y196311D01*
X176273Y195842D01*
X178629Y196311D01*
X179864Y197136D01*
X176273Y200727D01*
D02*
G37*
G36*
X17500Y198727D02*
X13908Y195136D01*
X15143Y194310D01*
X17500Y193842D01*
X19857Y194310D01*
X21092Y195136D01*
X17500Y198727D01*
D02*
G37*
G36*
X24500Y190000D02*
X5000D01*
Y176000D01*
X12314D01*
Y161250D01*
X13028Y159528D01*
X70278Y102278D01*
X72000Y101565D01*
X91000D01*
X92722Y102278D01*
X166046Y175602D01*
X167000Y175412D01*
X168756Y175761D01*
X170244Y176756D01*
X171239Y178244D01*
X171588Y180000D01*
X171239Y181756D01*
X170244Y183244D01*
X168756Y184239D01*
X167000Y184588D01*
X165244Y184239D01*
X163756Y183244D01*
X162761Y181756D01*
X162412Y180000D01*
X162602Y179046D01*
X117788Y134233D01*
X116802Y135042D01*
X117690Y136370D01*
X118158Y138727D01*
X117690Y141084D01*
X116864Y142319D01*
X112636Y138091D01*
X108408Y133863D01*
X109643Y133038D01*
X112000Y132569D01*
X114357Y133038D01*
X115685Y133925D01*
X116495Y132939D01*
X89991Y106435D01*
X73009D01*
X17185Y162259D01*
Y176000D01*
X24500D01*
Y190000D01*
D02*
G37*
G36*
X284000Y137317D02*
X281643Y136848D01*
X280408Y136023D01*
X284000Y132431D01*
X287592Y136023D01*
X286357Y136848D01*
X284000Y137317D01*
D02*
G37*
G36*
X288864Y134750D02*
X285273Y131158D01*
X288864Y127567D01*
X289690Y128802D01*
X290158Y131158D01*
X289690Y133515D01*
X288864Y134750D01*
D02*
G37*
G36*
X279136Y134750D02*
X278310Y133515D01*
X277842Y131158D01*
X278310Y128802D01*
X279136Y127567D01*
X282727Y131158D01*
X279136Y134750D01*
D02*
G37*
G36*
X284000Y129886D02*
X280408Y126294D01*
X281643Y125469D01*
X284000Y125000D01*
X286357Y125469D01*
X287592Y126294D01*
X284000Y129886D01*
D02*
G37*
G36*
X137681Y119567D02*
X135324Y119098D01*
X134090Y118273D01*
X137681Y114681D01*
X141273Y118273D01*
X140038Y119098D01*
X137681Y119567D01*
D02*
G37*
G36*
X142546Y117000D02*
X138954Y113408D01*
X142546Y109817D01*
X143371Y111052D01*
X143840Y113408D01*
X143371Y115765D01*
X142546Y117000D01*
D02*
G37*
G36*
X132817Y117000D02*
X131992Y115765D01*
X131523Y113408D01*
X131992Y111052D01*
X132817Y109817D01*
X136408Y113408D01*
X132817Y117000D01*
D02*
G37*
G36*
X284000Y114158D02*
X281643Y113690D01*
X280408Y112864D01*
X284000Y109273D01*
X287592Y112864D01*
X286357Y113690D01*
X284000Y114158D01*
D02*
G37*
G36*
X137681Y112136D02*
X134090Y108544D01*
X135324Y107719D01*
X137681Y107250D01*
X140038Y107719D01*
X141273Y108544D01*
X137681Y112136D01*
D02*
G37*
G36*
X35000Y111158D02*
X32643Y110689D01*
X31408Y109864D01*
X35000Y106273D01*
X38592Y109864D01*
X37357Y110689D01*
X35000Y111158D01*
D02*
G37*
G36*
X17500D02*
X15143Y110689D01*
X13908Y109864D01*
X17500Y106273D01*
X21092Y109864D01*
X19857Y110689D01*
X17500Y111158D01*
D02*
G37*
G36*
X288864Y111592D02*
X285273Y108000D01*
X288864Y104408D01*
X289690Y105643D01*
X290158Y108000D01*
X289690Y110357D01*
X288864Y111592D01*
D02*
G37*
G36*
X279136Y111592D02*
X278310Y110357D01*
X277842Y108000D01*
X278310Y105643D01*
X279136Y104408D01*
X282727Y108000D01*
X279136Y111592D01*
D02*
G37*
G36*
X284000Y106727D02*
X280408Y103136D01*
X281643Y102310D01*
X284000Y101842D01*
X286357Y102310D01*
X287592Y103136D01*
X284000Y106727D01*
D02*
G37*
G36*
X39864Y108592D02*
X36273Y105000D01*
X39864Y101408D01*
X40690Y102643D01*
X41158Y105000D01*
X40690Y107357D01*
X39864Y108592D01*
D02*
G37*
G36*
X30136Y108592D02*
X29311Y107357D01*
X28842Y105000D01*
X29311Y102643D01*
X30136Y101408D01*
X33727Y105000D01*
X30136Y108592D01*
D02*
G37*
G36*
X35000Y103727D02*
X31408Y100136D01*
X32643Y99310D01*
X35000Y98842D01*
X37357Y99310D01*
X38592Y100136D01*
X35000Y103727D01*
D02*
G37*
G36*
X127500Y98617D02*
X125159Y98152D01*
X123174Y96826D01*
X121848Y94841D01*
X121382Y92500D01*
X121848Y90159D01*
X123174Y88174D01*
X125159Y86848D01*
X127500Y86382D01*
X129841Y86848D01*
X131826Y88174D01*
X133152Y90159D01*
X133617Y92500D01*
X133152Y94841D01*
X131826Y96826D01*
X129841Y98152D01*
X127500Y98617D01*
D02*
G37*
G36*
X35000Y91158D02*
X32643Y90690D01*
X31408Y89864D01*
X35000Y86273D01*
X38592Y89864D01*
X37357Y90690D01*
X35000Y91158D01*
D02*
G37*
G36*
X284000Y90000D02*
X281643Y89531D01*
X280408Y88706D01*
X284000Y85114D01*
X287592Y88706D01*
X286357Y89531D01*
X284000Y90000D01*
D02*
G37*
G36*
X202500Y100147D02*
X199574Y99565D01*
X197093Y97907D01*
X195435Y95426D01*
X194853Y92500D01*
X195435Y89573D01*
X197093Y87093D01*
X199574Y85435D01*
X202500Y84853D01*
X205426Y85435D01*
X207907Y87093D01*
X209565Y89573D01*
X210147Y92500D01*
X209565Y95426D01*
X207907Y97907D01*
X205426Y99565D01*
X202500Y100147D01*
D02*
G37*
G36*
X39864Y88592D02*
X36273Y85000D01*
X39864Y81408D01*
X40690Y82643D01*
X41158Y85000D01*
X40690Y87357D01*
X39864Y88592D01*
D02*
G37*
G36*
X30136Y88592D02*
X29311Y87357D01*
X28842Y85000D01*
X29311Y82643D01*
X30136Y81408D01*
X33727Y85000D01*
X30136Y88592D01*
D02*
G37*
G36*
X288864Y87433D02*
X285273Y83842D01*
X288864Y80250D01*
X289690Y81485D01*
X290158Y83842D01*
X289690Y86198D01*
X288864Y87433D01*
D02*
G37*
G36*
X279136Y87433D02*
X278310Y86198D01*
X277842Y83842D01*
X278310Y81485D01*
X279136Y80250D01*
X282727Y83842D01*
X279136Y87433D01*
D02*
G37*
G36*
X35000Y83727D02*
X31408Y80136D01*
X32643Y79310D01*
X35000Y78842D01*
X37357Y79310D01*
X38592Y80136D01*
X35000Y83727D01*
D02*
G37*
G36*
X284000Y82569D02*
X280408Y78977D01*
X281643Y78152D01*
X284000Y77683D01*
X286357Y78152D01*
X287592Y78977D01*
X284000Y82569D01*
D02*
G37*
G36*
X291500Y69737D02*
X287583Y68958D01*
X285025Y67248D01*
X291500Y60773D01*
X297976Y67248D01*
X295418Y68958D01*
X291500Y69737D01*
D02*
G37*
G36*
X12000D02*
X8083Y68958D01*
X5525Y67248D01*
X12000Y60773D01*
X18476Y67248D01*
X15918Y68958D01*
X12000Y69737D01*
D02*
G37*
G36*
X291500Y47227D02*
X285025Y40752D01*
X287583Y39043D01*
X291500Y38263D01*
X295418Y39043D01*
X297976Y40752D01*
X291500Y47227D01*
D02*
G37*
G36*
X12000D02*
X5525Y40752D01*
X8083Y39043D01*
X12000Y38263D01*
X15918Y39043D01*
X18476Y40752D01*
X12000Y47227D01*
D02*
G37*
%LPD*%
G36*
X246416Y329500D02*
X247314Y328602D01*
Y324758D01*
X232741Y310185D01*
X183904D01*
X182181Y309472D01*
X178122Y305413D01*
X177244Y305238D01*
X175755Y304244D01*
X174761Y302755D01*
X174412Y300999D01*
X174761Y299244D01*
X175755Y297755D01*
X177244Y296761D01*
X179000Y296411D01*
X180755Y296761D01*
X182244Y297755D01*
X182480Y298108D01*
X183750Y297723D01*
Y287000D01*
X187565D01*
Y282785D01*
X186756Y282244D01*
X185761Y280756D01*
X185412Y279000D01*
X185761Y277244D01*
X186756Y275756D01*
X188244Y274761D01*
X190000Y274412D01*
X191756Y274761D01*
X193244Y275756D01*
X194239Y277244D01*
X194588Y279000D01*
X194239Y280756D01*
X193244Y282244D01*
X192435Y282785D01*
Y287000D01*
X195750D01*
Y305000D01*
X196889Y305315D01*
X207610D01*
X208750Y305000D01*
X208750Y304045D01*
Y287194D01*
X190991Y269435D01*
X184009D01*
X175435Y278009D01*
Y279215D01*
X176244Y279756D01*
X177239Y281244D01*
X177588Y283000D01*
X177239Y284756D01*
X176244Y286244D01*
X174756Y287239D01*
X173000Y287588D01*
X172290Y288171D01*
Y305267D01*
X165387Y298364D01*
X164114Y299636D01*
X171017Y306540D01*
X159643D01*
X159157Y307713D01*
X164862Y313418D01*
X166000Y313191D01*
X170000D01*
X171170Y313424D01*
X172163Y314087D01*
X172826Y315079D01*
X173059Y316250D01*
Y321440D01*
X175240Y323622D01*
X176411Y322999D01*
X176761Y321244D01*
X177755Y319755D01*
X179244Y318760D01*
X181000Y318411D01*
X182755Y318760D01*
X183552Y319293D01*
X184587Y319087D01*
X185579Y318424D01*
X186750Y318191D01*
X192250D01*
X193420Y318424D01*
X194413Y319087D01*
X195076Y320080D01*
X195172Y320564D01*
X239999D01*
X241721Y321277D01*
X244722Y324278D01*
X245435Y326000D01*
Y328602D01*
X246333Y329500D01*
X246416D01*
D02*
G37*
D10*
X48250Y296000D02*
D03*
X64750D02*
D03*
X89750D02*
D03*
X114750D02*
D03*
X239750D02*
D03*
X214750D02*
D03*
X189750D02*
D03*
X164750D02*
D03*
X139750D02*
D03*
D11*
X14750Y183000D02*
D03*
D12*
Y95000D02*
D03*
D13*
X13750Y82000D02*
D03*
D14*
X152000Y336000D02*
D03*
X168000D02*
D03*
X152000Y319000D02*
D03*
X168000D02*
D03*
X125000Y319000D02*
D03*
X109000Y319000D02*
D03*
X109000Y336000D02*
D03*
X125000Y336000D02*
D03*
D15*
X282000Y317000D02*
D03*
X282000Y301000D02*
D03*
X266000Y301000D02*
D03*
Y317000D02*
D03*
X189500Y339250D02*
D03*
Y323250D02*
D03*
D16*
X210750Y339500D02*
D03*
X275250D02*
D03*
D17*
X243000Y337500D02*
D03*
X249750D02*
D03*
X236250D02*
D03*
X256250D02*
D03*
X229750D02*
D03*
D18*
X208750Y364000D02*
D03*
X277250D02*
D03*
D19*
X255000D02*
D03*
X231000D02*
D03*
D20*
X38500Y325000D02*
D03*
X81500D02*
D03*
D21*
X74435Y283315D02*
X86750Y271000D01*
X74435Y283315D02*
Y304565D01*
X86750Y271000D02*
X93000D01*
X60000Y319000D02*
X74435Y304565D01*
X181000Y322999D02*
X239999D01*
X181000Y332825D02*
Y332999D01*
X189000Y213000D02*
X258000Y282000D01*
X75000Y115000D02*
X202500Y242500D01*
X164750Y296000D02*
Y296296D01*
X243000Y326000D02*
Y337500D01*
X183904Y307750D02*
X233750D01*
X249750Y323750D01*
Y337500D01*
X179000Y302846D02*
X183904Y307750D01*
X179000Y300999D02*
Y302846D01*
X80000Y185000D02*
X143000Y248000D01*
X75000Y185000D02*
X80000D01*
X78500Y256500D02*
X139000D01*
X85500Y203000D02*
X139000Y256500D01*
X75000Y203000D02*
X85500D01*
X48250Y286750D02*
X78500Y256500D01*
X48250Y286750D02*
Y296000D01*
X75000Y167500D02*
Y167954D01*
X64750Y283250D02*
Y296000D01*
X114750Y286250D02*
Y296000D01*
X228000Y301000D02*
X233000Y296000D01*
X239750D01*
X189750D02*
X190000Y295750D01*
X101750Y280250D02*
X102000Y280000D01*
X101750Y327751D02*
X109000Y335000D01*
X125000Y320000D02*
Y335000D01*
Y320000D02*
X125000Y320000D01*
X60000Y339000D02*
X65000Y344000D01*
X60000Y319000D02*
Y339000D01*
X239999Y322999D02*
X243000Y326000D01*
X139750Y296000D02*
X144000D01*
X14750Y161250D02*
X72000Y104000D01*
X14750Y161250D02*
Y183000D01*
Y95000D02*
X96000D01*
X202500Y242500D02*
Y265000D01*
X233500Y296000D01*
X239750D01*
X101750Y280250D02*
Y327751D01*
X143750Y336000D02*
X143750Y336000D01*
X152000D01*
X168174Y320000D02*
X181000Y332825D01*
X116000Y344000D02*
X129174D01*
X100000Y360000D02*
X116000Y344000D01*
X190000Y279000D02*
Y295750D01*
X75000Y133000D02*
X190000Y248000D01*
X75000Y150000D02*
X173000Y248000D01*
X173000D01*
X192000Y267000D01*
X173000Y277000D02*
Y283000D01*
Y277000D02*
X183000Y267000D01*
X192000D01*
X214750Y289750D01*
Y296000D01*
X139000Y256500D02*
X154000D01*
X114750Y286250D02*
X130001Y271000D01*
X130001Y271000D01*
X164000D01*
X75000Y167954D02*
X164000Y256954D01*
Y271000D01*
X64750Y283250D02*
X84001Y264000D01*
X146000D01*
X181000Y332825D02*
X186174Y338000D01*
X168000Y320000D02*
X168174D01*
X144000Y296000D02*
X168000Y320000D01*
X189000Y164000D02*
Y213000D01*
X96000Y95000D02*
X181000Y180000D01*
X266000Y301000D02*
X282000D01*
X266000Y301000D02*
X266000Y301000D01*
X251999Y288999D02*
X264000Y301000D01*
X266000D01*
X109000Y315750D02*
X115500Y309250D01*
X169174Y335000D02*
X171000D01*
X152000Y320000D02*
X154174D01*
X169174Y335000D01*
X129174Y344000D02*
X135000Y338175D01*
Y314412D02*
Y338175D01*
X91000Y104000D02*
X167000Y180000D01*
X72000Y104000D02*
X91000D01*
D22*
X283500Y379000D02*
X292500Y370000D01*
Y335000D02*
Y370000D01*
X285000Y327500D02*
X292500Y335000D01*
X256250Y326750D02*
Y337500D01*
Y326750D02*
X266000Y317000D01*
X276500Y327500D01*
X285000D01*
X94000Y379000D02*
X283500D01*
X81500Y325000D02*
Y366500D01*
X94000Y379000D01*
D23*
X27500Y325000D02*
X38500D01*
X17500Y335000D02*
X27500Y325000D01*
X115500Y309250D02*
X126500D01*
X139750Y296000D01*
D24*
X205000Y125000D02*
Y204011D01*
X254000Y253011D01*
D25*
X164750Y288750D02*
Y296000D01*
X158546Y282546D02*
X164750Y288750D01*
D26*
X12000Y54000D02*
D03*
X291500D02*
D03*
D27*
X62700Y360000D02*
D03*
D28*
X37300D02*
D03*
D29*
X202500Y92500D02*
D03*
D30*
X127500D02*
D03*
D31*
X100000Y360000D02*
D03*
X125400D02*
D03*
X150800D02*
D03*
X176200D02*
D03*
D32*
X181000Y322999D02*
D03*
Y332999D02*
D03*
X189000Y164000D02*
D03*
X179000Y300999D02*
D03*
X75000Y203000D02*
D03*
X75000Y115000D02*
D03*
X75000Y133000D02*
D03*
X75000Y150000D02*
D03*
X75000Y167500D02*
D03*
X173000Y283000D02*
D03*
X143000Y248000D02*
D03*
X75000Y185000D02*
D03*
X228000Y301000D02*
D03*
X17500Y335000D02*
D03*
X102000Y280000D02*
D03*
X65000Y344000D02*
D03*
X93000Y271000D02*
D03*
X146000Y264000D02*
D03*
X205000Y125000D02*
D03*
X254000Y253011D02*
D03*
X258000Y282000D02*
D03*
X251999Y288999D02*
D03*
X143750Y336000D02*
D03*
X190000Y279000D02*
D03*
Y248000D02*
D03*
X154000Y256500D02*
D03*
X164000Y271000D02*
D03*
X87000Y221000D02*
D03*
X144000Y327000D02*
D03*
X158546Y282546D02*
D03*
X17500Y282000D02*
D03*
X215000Y262000D02*
D03*
X176273Y202000D02*
D03*
X181000Y180000D02*
D03*
X167000D02*
D03*
X35000Y85000D02*
D03*
Y105000D02*
D03*
X260000Y265000D02*
D03*
X284000Y206000D02*
D03*
Y131158D02*
D03*
Y83842D02*
D03*
Y108000D02*
D03*
X115500Y309250D02*
D03*
X135000Y314412D02*
D03*
X112000Y138727D02*
D03*
X137681Y113408D02*
D03*
X17500Y200000D02*
D03*
Y105000D02*
D03*
M02*
