G04 Layer_Color=16711935*
%FSLAX44Y44*%
%MOMM*%
G71*
G01*
G75*
G04:AMPARAMS|DCode=51|XSize=1.1532mm|YSize=1.0032mm|CornerRadius=0.3016mm|HoleSize=0mm|Usage=FLASHONLY|Rotation=90.000|XOffset=0mm|YOffset=0mm|HoleType=Round|Shape=RoundedRectangle|*
%AMROUNDEDRECTD51*
21,1,1.1532,0.4000,0,0,90.0*
21,1,0.5500,1.0032,0,0,90.0*
1,1,0.6032,0.2000,0.2750*
1,1,0.6032,0.2000,-0.2750*
1,1,0.6032,-0.2000,-0.2750*
1,1,0.6032,-0.2000,0.2750*
%
%ADD51ROUNDEDRECTD51*%
G04:AMPARAMS|DCode=52|XSize=1.1532mm|YSize=1.0032mm|CornerRadius=0.3016mm|HoleSize=0mm|Usage=FLASHONLY|Rotation=0.000|XOffset=0mm|YOffset=0mm|HoleType=Round|Shape=RoundedRectangle|*
%AMROUNDEDRECTD52*
21,1,1.1532,0.4000,0,0,0.0*
21,1,0.5500,1.0032,0,0,0.0*
1,1,0.6032,0.2750,-0.2000*
1,1,0.6032,-0.2750,-0.2000*
1,1,0.6032,-0.2750,0.2000*
1,1,0.6032,0.2750,0.2000*
%
%ADD52ROUNDEDRECTD52*%
G04:AMPARAMS|DCode=57|XSize=2.5032mm|YSize=1.7532mm|CornerRadius=0.4891mm|HoleSize=0mm|Usage=FLASHONLY|Rotation=0.000|XOffset=0mm|YOffset=0mm|HoleType=Round|Shape=RoundedRectangle|*
%AMROUNDEDRECTD57*
21,1,2.5032,0.7750,0,0,0.0*
21,1,1.5250,1.7532,0,0,0.0*
1,1,0.9782,0.7625,-0.3875*
1,1,0.9782,-0.7625,-0.3875*
1,1,0.9782,-0.7625,0.3875*
1,1,0.9782,0.7625,0.3875*
%
%ADD57ROUNDEDRECTD57*%
%ADD58O,1.7032X2.8032*%
%ADD59R,1.7272X1.7272*%
%ADD60C,1.7272*%
%ADD61C,1.4032*%
%ADD62C,1.1032*%
%ADD63C,1.8032*%
%ADD64R,4.7032X2.5032*%
%ADD65R,2.0032X1.4532*%
G04:AMPARAMS|DCode=66|XSize=1.1532mm|YSize=1.0032mm|CornerRadius=0.3016mm|HoleSize=0mm|Usage=FLASHONLY|Rotation=225.000|XOffset=0mm|YOffset=0mm|HoleType=Round|Shape=RoundedRectangle|*
%AMROUNDEDRECTD66*
21,1,1.1532,0.4000,0,0,225.0*
21,1,0.5500,1.0032,0,0,225.0*
1,1,0.6032,-0.3359,-0.0530*
1,1,0.6032,0.0530,0.3359*
1,1,0.6032,0.3359,0.0530*
1,1,0.6032,-0.0530,-0.3359*
%
%ADD66ROUNDEDRECTD66*%
G04:AMPARAMS|DCode=67|XSize=3.4532mm|YSize=2.3532mm|CornerRadius=0.6391mm|HoleSize=0mm|Usage=FLASHONLY|Rotation=270.000|XOffset=0mm|YOffset=0mm|HoleType=Round|Shape=RoundedRectangle|*
%AMROUNDEDRECTD67*
21,1,3.4532,1.0750,0,0,270.0*
21,1,2.1750,2.3532,0,0,270.0*
1,1,1.2782,-0.5375,-1.0875*
1,1,1.2782,-0.5375,1.0875*
1,1,1.2782,0.5375,1.0875*
1,1,1.2782,0.5375,-1.0875*
%
%ADD67ROUNDEDRECTD67*%
%ADD68O,2.3532X1.1532*%
G04:AMPARAMS|DCode=69|XSize=0.5032mm|YSize=2.0032mm|CornerRadius=0mm|HoleSize=0mm|Usage=FLASHONLY|Rotation=135.000|XOffset=0mm|YOffset=0mm|HoleType=Round|Shape=Round|*
%AMOVALD69*
21,1,1.5000,0.5032,0.0000,0.0000,225.0*
1,1,0.5032,0.5303,0.5303*
1,1,0.5032,-0.5303,-0.5303*
%
%ADD69OVALD69*%

G04:AMPARAMS|DCode=70|XSize=0.5032mm|YSize=2.0032mm|CornerRadius=0mm|HoleSize=0mm|Usage=FLASHONLY|Rotation=45.000|XOffset=0mm|YOffset=0mm|HoleType=Round|Shape=Round|*
%AMOVALD70*
21,1,1.5000,0.5032,0.0000,0.0000,135.0*
1,1,0.5032,0.5303,-0.5303*
1,1,0.5032,-0.5303,0.5303*
%
%ADD70OVALD70*%

G04:AMPARAMS|DCode=71|XSize=1.5mm|YSize=1.25mm|CornerRadius=0.3625mm|HoleSize=0mm|Usage=FLASHONLY|Rotation=225.000|XOffset=0mm|YOffset=0mm|HoleType=Round|Shape=RoundedRectangle|*
%AMROUNDEDRECTD71*
21,1,1.5000,0.5250,0,0,225.0*
21,1,0.7750,1.2500,0,0,225.0*
1,1,0.7250,-0.4596,-0.0884*
1,1,0.7250,0.0884,0.4596*
1,1,0.7250,0.4596,0.0884*
1,1,0.7250,-0.0884,-0.4596*
%
%ADD71ROUNDEDRECTD71*%
G04:AMPARAMS|DCode=72|XSize=1.2mm|YSize=1.7mm|CornerRadius=0.35mm|HoleSize=0mm|Usage=FLASHONLY|Rotation=270.000|XOffset=0mm|YOffset=0mm|HoleType=Round|Shape=RoundedRectangle|*
%AMROUNDEDRECTD72*
21,1,1.2000,1.0000,0,0,270.0*
21,1,0.5000,1.7000,0,0,270.0*
1,1,0.7000,-0.5000,-0.2500*
1,1,0.7000,-0.5000,0.2500*
1,1,0.7000,0.5000,0.2500*
1,1,0.7000,0.5000,-0.2500*
%
%ADD72ROUNDEDRECTD72*%
%ADD73R,2.5532X2.4532*%
G04:AMPARAMS|DCode=74|XSize=1.1532mm|YSize=1.0032mm|CornerRadius=0.3016mm|HoleSize=0mm|Usage=FLASHONLY|Rotation=315.000|XOffset=0mm|YOffset=0mm|HoleType=Round|Shape=RoundedRectangle|*
%AMROUNDEDRECTD74*
21,1,1.1532,0.4000,0,0,315.0*
21,1,0.5500,1.0032,0,0,315.0*
1,1,0.6032,0.0530,-0.3359*
1,1,0.6032,-0.3359,0.0530*
1,1,0.6032,-0.0530,0.3359*
1,1,0.6032,0.3359,-0.0530*
%
%ADD74ROUNDEDRECTD74*%
D51*
X207000Y170000D02*
D03*
X223000D02*
D03*
X283000Y292500D02*
D03*
X267000D02*
D03*
X43000Y224000D02*
D03*
X59000D02*
D03*
X63000Y115000D02*
D03*
X47000D02*
D03*
X63000Y202500D02*
D03*
X47000D02*
D03*
X63000Y185000D02*
D03*
X47000D02*
D03*
X63000Y167500D02*
D03*
X47000D02*
D03*
X63000Y132500D02*
D03*
X47000D02*
D03*
X63000Y150000D02*
D03*
X47000D02*
D03*
X283000Y221000D02*
D03*
X267000D02*
D03*
X283000Y275000D02*
D03*
X267000D02*
D03*
X170250Y333000D02*
D03*
X154250D02*
D03*
D52*
X87000Y259000D02*
D03*
Y243000D02*
D03*
X198960Y354752D02*
D03*
Y370752D02*
D03*
X277500Y175500D02*
D03*
X277500Y159500D02*
D03*
X253000Y139000D02*
D03*
Y155000D02*
D03*
D57*
X278147Y322028D02*
D03*
X235147D02*
D03*
D58*
X12000Y54000D02*
D03*
X291500D02*
D03*
D59*
X62700Y360000D02*
D03*
D60*
X37300D02*
D03*
D61*
X202500Y92500D02*
D03*
D62*
X127500D02*
D03*
D63*
X100000Y360000D02*
D03*
X125400D02*
D03*
X150800D02*
D03*
X176200D02*
D03*
D64*
X75500Y92500D02*
D03*
X239500D02*
D03*
D65*
X61000Y251000D02*
D03*
X35000D02*
D03*
X68000Y42500D02*
D03*
X42000D02*
D03*
D66*
X126343Y187657D02*
D03*
X137657Y176343D02*
D03*
D67*
X94000Y305000D02*
D03*
D68*
X36000D02*
D03*
Y282000D02*
D03*
Y328000D02*
D03*
D69*
X240761Y265228D02*
D03*
X237225Y268764D02*
D03*
X233690Y272299D02*
D03*
X230155Y275835D02*
D03*
X226619Y279370D02*
D03*
X223083Y282905D02*
D03*
X219548Y286441D02*
D03*
X216012Y289977D02*
D03*
X212477Y293512D02*
D03*
X208941Y297048D02*
D03*
X205406Y300583D02*
D03*
X201870Y304119D02*
D03*
X198335Y307654D02*
D03*
X194799Y311190D02*
D03*
X191264Y314725D02*
D03*
X187728Y318261D02*
D03*
X109239Y239772D02*
D03*
X112775Y236236D02*
D03*
X116310Y232701D02*
D03*
X119846Y229166D02*
D03*
X123381Y225630D02*
D03*
X126917Y222094D02*
D03*
X130452Y218559D02*
D03*
X133988Y215023D02*
D03*
X137523Y211488D02*
D03*
X141059Y207952D02*
D03*
X144595Y204417D02*
D03*
X148130Y200881D02*
D03*
X151665Y197346D02*
D03*
X155201Y193810D02*
D03*
X158736Y190275D02*
D03*
X162272Y186739D02*
D03*
D70*
Y318261D02*
D03*
X158736Y314725D02*
D03*
X155201Y311190D02*
D03*
X151665Y307654D02*
D03*
X148130Y304119D02*
D03*
X144595Y300583D02*
D03*
X141059Y297048D02*
D03*
X137523Y293512D02*
D03*
X133988Y289977D02*
D03*
X130452Y286441D02*
D03*
X126917Y282905D02*
D03*
X123381Y279370D02*
D03*
X119846Y275835D02*
D03*
X116310Y272299D02*
D03*
X112775Y268764D02*
D03*
X109239Y265228D02*
D03*
X187728Y186739D02*
D03*
X191264Y190275D02*
D03*
X194799Y193810D02*
D03*
X198335Y197346D02*
D03*
X201870Y200881D02*
D03*
X205406Y204417D02*
D03*
X208941Y207952D02*
D03*
X212477Y211488D02*
D03*
X216012Y215023D02*
D03*
X219548Y218559D02*
D03*
X223083Y222094D02*
D03*
X226619Y225630D02*
D03*
X230155Y229166D02*
D03*
X233690Y232701D02*
D03*
X237225Y236236D02*
D03*
X240761Y239772D02*
D03*
D71*
X237827Y188409D02*
D03*
X250909Y175328D02*
D03*
X254091Y204672D02*
D03*
X267173Y191591D02*
D03*
D72*
X277500Y260000D02*
D03*
Y235000D02*
D03*
D73*
X228500Y357000D02*
D03*
X277500D02*
D03*
D74*
X123657Y303657D02*
D03*
X112343Y292343D02*
D03*
M02*
