M48
;Layer_Color=9474304
;FILE_FORMAT=4:4
METRIC
;TYPE=PLATED
T1F00S00C0.3000
T3F00S00C0.9652
T4F00S00C1.0500
;TYPE=NON_PLATED
T5F00S00C1.0000
T6F00S00C1.3000
%
T01
X00035000Y00085000
Y00105000
X00017500
X00075000Y00115000
X00137681Y00113408
X00284000Y00108000
Y00083842
Y00131158
Y00206000
X00254000Y00253011
X00260000Y00265000
X00258000Y00282000
X00251999Y00288999
X00228000Y00301000
X00179000Y00300999
X00173000Y00283000
X00158546Y00282546
X00164000Y00271000
X00154000Y00256500
X00146000Y00264000
X00143000Y00248000
X00190000Y00248000
Y00279000
X00215000Y00262000
X00181000Y00322999
Y00332999
X00143750Y00336000
X00144000Y00327000
X00135000Y00314412
X00115500Y00309250
X00176273Y00202000
X00181000Y00180000
X00167000
X00189000Y00164000
X00205000Y00125000
X00112000Y00138727
X00075000Y00133000
X00075000Y00150000
X00075000Y00167500
X00075000Y00185000
X00075000Y00203000
X00087000Y00221000
X00093000Y00271000
X00102000Y00280000
X00017500Y00282000
Y00335000
X00065000Y00344000
X00017500Y00200000
T03
X00037300Y00360000
X00062700
T04
X00125400Y00360000
X00150800
X00176200
X00100000
T05
X00127500Y00092500
T06
X00202500Y00092500
M30
