G04 Layer_Color=32896*
%FSLAX44Y44*%
%MOMM*%
G71*
G01*
G75*
%ADD21C,0.2500*%
%ADD25C,0.1800*%
%ADD44C,0.2000*%
%ADD75C,0.6000*%
%ADD76C,0.1600*%
D21*
X72750Y263000D02*
G03*
X72750Y263000I-1250J0D01*
G01*
X29250Y272000D02*
G03*
X29250Y272000I-1250J0D01*
G01*
X246961Y244722D02*
G03*
X246961Y244722I-1250J0D01*
G01*
X276731Y198839D02*
G03*
X276731Y198839I-1250J0D01*
G01*
X79750Y54500D02*
G03*
X79750Y54500I-1250J0D01*
G01*
X216250Y340000D02*
G03*
X216250Y340000I-1250J0D01*
G01*
D25*
X221000Y332997D02*
Y327666D01*
X218334Y325000D01*
X215668Y327666D01*
Y332997D01*
X213003D02*
Y325000D01*
X209004D01*
X207671Y326333D01*
Y331665D01*
X209004Y332997D01*
X213003D01*
X199674Y325000D02*
X205005D01*
X199674Y330332D01*
Y331665D01*
X201006Y332997D01*
X203672D01*
X205005Y331665D01*
X87168Y234165D02*
X88501Y235497D01*
X91167D01*
X92500Y234165D01*
Y228833D01*
X91167Y227500D01*
X88501D01*
X87168Y228833D01*
X84503Y227500D02*
X81837D01*
X83170D01*
Y235497D01*
X84503Y234165D01*
X72506Y227500D02*
X77838D01*
X72506Y232832D01*
Y234165D01*
X73839Y235497D01*
X76505D01*
X77838Y234165D01*
X64668Y64165D02*
X66001Y65497D01*
X68667D01*
X70000Y64165D01*
Y58833D01*
X68667Y57500D01*
X66001D01*
X64668Y58833D01*
X56671Y65497D02*
X59337Y64165D01*
X62003Y61499D01*
Y58833D01*
X60670Y57500D01*
X58004D01*
X56671Y58833D01*
Y60166D01*
X58004Y61499D01*
X62003D01*
X257003Y260000D02*
Y254668D01*
X258335D01*
X263667Y260000D01*
X265000D01*
Y254668D01*
X263667Y246671D02*
X258335D01*
X257003Y248004D01*
Y250670D01*
X258335Y252003D01*
X263667D01*
X265000Y250670D01*
Y248004D01*
X262334Y249337D02*
X265000Y246671D01*
Y248004D02*
X263667Y246671D01*
X265000Y238673D02*
Y244005D01*
X259668Y238673D01*
X258335D01*
X257003Y240006D01*
Y242672D01*
X258335Y244005D01*
X239345Y215655D02*
X235575Y211885D01*
X236517Y210942D01*
X244058D01*
X245000Y210000D01*
X241230Y206230D01*
X234632Y201518D02*
X230862Y205287D01*
Y207173D01*
X232747Y209058D01*
X234632Y209058D01*
X238402Y205287D01*
Y203403D01*
X236517Y201518D01*
X235575Y204345D02*
Y200575D01*
X236517Y201518D02*
X234632Y201518D01*
X233690Y198690D02*
X231805Y196805D01*
X232747Y197747D01*
X227092Y203403D01*
X228977Y203403D01*
X194000Y337997D02*
Y331333D01*
X192667Y330000D01*
X190001D01*
X188668Y331333D01*
Y337997D01*
X186003Y330000D02*
X183337D01*
X184670D01*
Y337997D01*
X186003Y336665D01*
X226000Y178000D02*
Y185997D01*
X222001D01*
X220668Y184664D01*
Y181999D01*
X222001Y180666D01*
X226000D01*
X223334D02*
X220668Y178000D01*
X218003D02*
X215337D01*
X216670D01*
Y185997D01*
X218003Y184664D01*
X211338D02*
X210005Y185997D01*
X207339D01*
X206006Y184664D01*
Y179333D01*
X207339Y178000D01*
X210005D01*
X211338Y179333D01*
Y184664D01*
X40000Y147500D02*
Y155497D01*
X36001D01*
X34668Y154164D01*
Y151499D01*
X36001Y150166D01*
X40000D01*
X37334D02*
X34668Y147500D01*
X32003Y148833D02*
X30670Y147500D01*
X28004D01*
X26671Y148833D01*
Y154164D01*
X28004Y155497D01*
X30670D01*
X32003Y154164D01*
Y152832D01*
X30670Y151499D01*
X26671D01*
X40000Y130000D02*
Y137997D01*
X36001D01*
X34668Y136664D01*
Y133999D01*
X36001Y132666D01*
X40000D01*
X37334D02*
X34668Y130000D01*
X32003Y136664D02*
X30670Y137997D01*
X28004D01*
X26671Y136664D01*
Y135332D01*
X28004Y133999D01*
X26671Y132666D01*
Y131333D01*
X28004Y130000D01*
X30670D01*
X32003Y131333D01*
Y132666D01*
X30670Y133999D01*
X32003Y135332D01*
Y136664D01*
X30670Y133999D02*
X28004D01*
X40000Y165000D02*
Y172997D01*
X36001D01*
X34668Y171665D01*
Y168999D01*
X36001Y167666D01*
X40000D01*
X37334D02*
X34668Y165000D01*
X32003Y172997D02*
X26671D01*
Y171665D01*
X32003Y166333D01*
Y165000D01*
X40000Y182500D02*
Y190497D01*
X36001D01*
X34668Y189165D01*
Y186499D01*
X36001Y185166D01*
X40000D01*
X37334D02*
X34668Y182500D01*
X26671Y190497D02*
X29337Y189165D01*
X32003Y186499D01*
Y183833D01*
X30670Y182500D01*
X28004D01*
X26671Y183833D01*
Y185166D01*
X28004Y186499D01*
X32003D01*
X40000Y200000D02*
Y207997D01*
X36001D01*
X34668Y206665D01*
Y203999D01*
X36001Y202666D01*
X40000D01*
X37334D02*
X34668Y200000D01*
X26671Y207997D02*
X32003D01*
Y203999D01*
X29337Y205332D01*
X28004D01*
X26671Y203999D01*
Y201333D01*
X28004Y200000D01*
X30670D01*
X32003Y201333D01*
X40000Y112500D02*
Y120497D01*
X36001D01*
X34668Y119164D01*
Y116499D01*
X36001Y115166D01*
X40000D01*
X37334D02*
X34668Y112500D01*
X28004D02*
Y120497D01*
X32003Y116499D01*
X26671D01*
X105000Y332997D02*
Y325000D01*
X101001D01*
X99668Y326333D01*
Y331665D01*
X101001Y332997D01*
X105000D01*
X97003Y325000D02*
Y330332D01*
X94337Y332997D01*
X91671Y330332D01*
Y325000D01*
Y328999D01*
X97003D01*
X89005Y325000D02*
X86339D01*
X87672D01*
Y332997D01*
X89005Y331665D01*
X120168Y177665D02*
X121501Y178997D01*
X124167D01*
X125500Y177665D01*
Y172333D01*
X124167Y171000D01*
X121501D01*
X120168Y172333D01*
X117503Y171000D02*
X114837D01*
X116170D01*
Y178997D01*
X117503Y177665D01*
X110838Y171000D02*
X108172D01*
X109505D01*
Y178997D01*
X110838Y177665D01*
X29668Y226665D02*
X31001Y227997D01*
X33667D01*
X35000Y226665D01*
Y221333D01*
X33667Y220000D01*
X31001D01*
X29668Y221333D01*
X27003Y220000D02*
X24337D01*
X25670D01*
Y227997D01*
X27003Y226665D01*
X20338D02*
X19005Y227997D01*
X16339D01*
X15006Y226665D01*
Y221333D01*
X16339Y220000D01*
X19005D01*
X20338Y221333D01*
Y226665D01*
X254668Y298664D02*
X256001Y299997D01*
X258667D01*
X260000Y298664D01*
Y293333D01*
X258667Y292000D01*
X256001D01*
X254668Y293333D01*
X252003D02*
X250670Y292000D01*
X248004D01*
X246671Y293333D01*
Y298664D01*
X248004Y299997D01*
X250670D01*
X252003Y298664D01*
Y297332D01*
X250670Y295999D01*
X246671D01*
X255668Y282665D02*
X257001Y283997D01*
X259667D01*
X261000Y282665D01*
Y277333D01*
X259667Y276000D01*
X257001D01*
X255668Y277333D01*
X253003Y282665D02*
X251670Y283997D01*
X249004D01*
X247671Y282665D01*
Y281332D01*
X249004Y279999D01*
X247671Y278666D01*
Y277333D01*
X249004Y276000D01*
X251670D01*
X253003Y277333D01*
Y278666D01*
X251670Y279999D01*
X253003Y281332D01*
Y282665D01*
X251670Y279999D02*
X249004D01*
X254668Y224165D02*
X256001Y225497D01*
X258667D01*
X260000Y224165D01*
Y218833D01*
X258667Y217500D01*
X256001D01*
X254668Y218833D01*
X252003Y225497D02*
X246671D01*
Y224165D01*
X252003Y218833D01*
Y217500D01*
X269668Y146664D02*
X271001Y147997D01*
X273667D01*
X275000Y146664D01*
Y141333D01*
X273667Y140000D01*
X271001D01*
X269668Y141333D01*
X261671Y147997D02*
X267003D01*
Y143999D01*
X264337Y145332D01*
X263004D01*
X261671Y143999D01*
Y141333D01*
X263004Y140000D01*
X265670D01*
X267003Y141333D01*
X284668Y189165D02*
X286001Y190497D01*
X288667D01*
X290000Y189165D01*
Y183833D01*
X288667Y182500D01*
X286001D01*
X284668Y183833D01*
X278004Y182500D02*
Y190497D01*
X282003Y186499D01*
X276671D01*
X186418Y377164D02*
X187751Y378497D01*
X190417D01*
X191750Y377164D01*
Y371833D01*
X190417Y370500D01*
X187751D01*
X186418Y371833D01*
X183753Y377164D02*
X182420Y378497D01*
X179754D01*
X178421Y377164D01*
Y375832D01*
X179754Y374499D01*
X181087D01*
X179754D01*
X178421Y373166D01*
Y371833D01*
X179754Y370500D01*
X182420D01*
X183753Y371833D01*
X208328Y346801D02*
X209661Y348134D01*
X212326D01*
X213659Y346801D01*
Y341469D01*
X212326Y340136D01*
X209661D01*
X208328Y341469D01*
X200330Y340136D02*
X205662D01*
X200330Y345468D01*
Y346801D01*
X201663Y348134D01*
X204329D01*
X205662Y346801D01*
X15918Y254165D02*
X17251Y255497D01*
X19917D01*
X21250Y254165D01*
Y248833D01*
X19917Y247500D01*
X17251D01*
X15918Y248833D01*
X13253Y247500D02*
X10587D01*
X11920D01*
Y255497D01*
X13253Y254165D01*
X49500Y99497D02*
Y91500D01*
X45501D01*
X44168Y92833D01*
Y94166D01*
X45501Y95499D01*
X49500D01*
X45501D01*
X44168Y96832D01*
Y98165D01*
X45501Y99497D01*
X49500D01*
X41503Y91500D02*
X38837D01*
X40170D01*
Y99497D01*
X41503Y98165D01*
X168668Y346914D02*
X170001Y348247D01*
X172667D01*
X174000Y346914D01*
Y341583D01*
X172667Y340250D01*
X170001D01*
X168668Y341583D01*
X166003Y340250D02*
X163337D01*
X164670D01*
Y348247D01*
X166003Y346914D01*
X159338D02*
X158005Y348247D01*
X155339D01*
X154006Y346914D01*
Y345582D01*
X155339Y344249D01*
X156672D01*
X155339D01*
X154006Y342916D01*
Y341583D01*
X155339Y340250D01*
X158005D01*
X159338Y341583D01*
X129418Y318915D02*
X130751Y320247D01*
X133417D01*
X134750Y318915D01*
Y313583D01*
X133417Y312250D01*
X130751D01*
X129418Y313583D01*
X126753Y312250D02*
X124087D01*
X125420D01*
Y320247D01*
X126753Y318915D01*
X116089Y312250D02*
Y320247D01*
X120088Y316249D01*
X114756D01*
X213178Y368394D02*
Y375250D01*
X209750Y371822D02*
X216606D01*
D44*
X91217Y59597D02*
G03*
X223725Y59481I66283J32903D01*
G01*
X223783Y125403D02*
G03*
X91275Y125519I-66283J-32903D01*
G01*
X284647Y307528D02*
Y310278D01*
Y333778D02*
Y336528D01*
X228647Y307528D02*
Y310278D01*
Y333778D02*
Y336528D01*
Y307528D02*
X284647D01*
X228647Y336528D02*
X284647D01*
X84000Y251000D02*
X90000D01*
X195960Y362752D02*
X201960D01*
X215000Y167000D02*
Y173000D01*
X240570Y24180D02*
Y77600D01*
Y108030D02*
Y160820D01*
X223750Y24180D02*
Y59540D01*
Y24180D02*
X240570D01*
X223750Y160820D02*
X240570D01*
X223750Y125469D02*
Y160820D01*
X31000Y240750D02*
X65000D01*
X31000Y261250D02*
X65000D01*
X275000Y289500D02*
Y295500D01*
X51000Y221000D02*
Y227000D01*
X129879Y179879D02*
X134121Y184121D01*
X51000Y271500D02*
Y338500D01*
X79000Y271500D02*
Y338500D01*
X51000Y271500D02*
X79000D01*
X51000Y338500D02*
X79000D01*
X55000Y112000D02*
Y118000D01*
Y199500D02*
Y205500D01*
Y182000D02*
Y188000D01*
Y164500D02*
Y170500D01*
Y129500D02*
Y135500D01*
Y147000D02*
Y153000D01*
X114896Y252500D02*
X175000Y192396D01*
Y312604D02*
X235104Y252500D01*
X114896Y252500D02*
X175000Y312604D01*
Y192396D02*
X235104Y252500D01*
X241893Y179393D02*
X263106Y200607D01*
X243661Y198839D02*
X261339Y181161D01*
X270000Y250000D02*
X285000D01*
X270000Y245000D02*
X285000D01*
Y250000D01*
X270000Y245000D02*
Y250000D01*
X38000Y32250D02*
X72000D01*
X38000Y52750D02*
X72000D01*
X274500Y167500D02*
X280500Y167500D01*
X250000Y147000D02*
X256000Y147000D01*
X275000Y218000D02*
Y224000D01*
Y272000D02*
Y278000D01*
X221500Y339500D02*
X284500D01*
X221500Y374500D02*
X284500D01*
X221500Y339500D02*
Y341750D01*
Y372250D02*
Y374500D01*
X284500Y339500D02*
Y341750D01*
Y372250D02*
Y374500D01*
X115879Y300121D02*
X120121Y295879D01*
X162250Y330000D02*
Y336000D01*
X113500Y21247D02*
Y11250D01*
X108502D01*
X106835Y12916D01*
Y14582D01*
X108502Y16248D01*
X113500D01*
X108502D01*
X106835Y17915D01*
Y19581D01*
X108502Y21247D01*
X113500D01*
X101837Y17915D02*
X98505D01*
X96839Y16248D01*
Y11250D01*
X101837D01*
X103503Y12916D01*
X101837Y14582D01*
X96839D01*
X91840Y19581D02*
Y17915D01*
X93506D01*
X90174D01*
X91840D01*
Y12916D01*
X90174Y11250D01*
X68514Y19581D02*
X70181Y21247D01*
X73513D01*
X75179Y19581D01*
Y12916D01*
X73513Y11250D01*
X70181D01*
X68514Y12916D01*
X65182Y11250D02*
Y21247D01*
X60184D01*
X58518Y19581D01*
Y16248D01*
X60184Y14582D01*
X65182D01*
X61850D02*
X58518Y11250D01*
X55185D02*
X51853D01*
X53519D01*
Y21247D01*
X55185Y19581D01*
X40190Y11250D02*
X46855D01*
X40190Y17915D01*
Y19581D01*
X41856Y21247D01*
X45189D01*
X46855Y19581D01*
X30194Y11250D02*
X36858D01*
X30194Y17915D01*
Y19581D01*
X31860Y21247D01*
X35192D01*
X36858Y19581D01*
X26861D02*
X25195Y21247D01*
X21863D01*
X20197Y19581D01*
Y12916D01*
X21863Y11250D01*
X25195D01*
X26861Y12916D01*
Y19581D01*
X267419Y124086D02*
X265753Y125752D01*
Y129084D01*
X267419Y130750D01*
X269086D01*
X270752Y129084D01*
Y125752D01*
X272418Y124086D01*
X274084D01*
X275750Y125752D01*
Y129084D01*
X274084Y130750D01*
X265753Y120753D02*
X275750D01*
Y115755D01*
X274084Y114089D01*
X267419D01*
X265753Y115755D01*
Y120753D01*
Y100760D02*
X275750D01*
Y94095D01*
Y89097D02*
Y85765D01*
X274084Y84098D01*
X270752D01*
X269086Y85765D01*
Y89097D01*
X270752Y90763D01*
X274084D01*
X275750Y89097D01*
X279082Y77434D02*
Y75768D01*
X277416Y74102D01*
X269086D01*
Y79100D01*
X270752Y80766D01*
X274084D01*
X275750Y79100D01*
Y74102D01*
Y65771D02*
Y69103D01*
X274084Y70769D01*
X270752D01*
X269086Y69103D01*
Y65771D01*
X270752Y64105D01*
X272418D01*
Y70769D01*
X269086Y60773D02*
X275750D01*
X272418D01*
X270752Y59106D01*
X269086Y57440D01*
Y55774D01*
X265753Y40779D02*
X272418D01*
X275750Y37447D01*
X272418Y34114D01*
X265753D01*
X275750Y30782D02*
X274084D01*
Y29116D01*
X275750D01*
Y30782D01*
Y22452D02*
Y19119D01*
Y20785D01*
X265753D01*
X267419Y22452D01*
D75*
X223962Y252500D02*
G03*
X223962Y252500I-3000J0D01*
G01*
D76*
X225362Y309097D02*
Y300528D01*
X229647Y304813D02*
X221077D01*
X72465Y246570D02*
Y238000D01*
X76750Y242285D02*
X68180D01*
X79465Y38070D02*
Y29500D01*
X83750Y33785D02*
X75180D01*
M02*
